<svg xmlns="http://www.w3.org/2000/svg" xml:space="preserve" id="svg5" width="575.305" height="542.89" version="1.1" viewBox="0 0 152.216 143.64"><g id="layer1" transform="translate(-26.036 -70.895)"><path id="path353" d="M61.852 175.434c.612-7.693 5.135-14.999 9.046-21.43 4.767-7.84 9.224-15.876 13.82-23.813 3.945-6.81 8.302-13.948 9.103-21.96C95.14 95.06 87.832 81.112 76.14 74.79c-11.417-6.17-26.738-4.806-37.042 3.075-3.032 2.318-5.722 5.146-7.723 8.404-1.731 2.818-3.189 5.808-4.105 8.996-5.767 20.068 10.039 38.084 19.212 54.504a731.568 731.568 0 0 0 10.413 17.992c1.46 2.447 2.746 5.84 4.957 7.672m23.813-31.485c16.612-5.62 34.833-3.555 52.122-4.739 5.83-.399 11.525-.299 17.198-2.026 4.563-1.39 9.028-3.923 12.436-7.262 8.538-8.366 12.971-21.915 9.81-33.598-4.924-18.205-25.064-29.88-43.148-23.811-4.899 1.644-9.433 4.16-13.229 7.695-5.329 4.963-8.437 11.852-11.71 18.233-2.871 5.597-6.042 11.043-8.862 16.668-3.437 6.857-7.199 13.557-10.717 20.373-1.18 2.287-4.106 5.866-3.9 8.467m73.29-2.381-.265-.265c-9.044 3.396-17.767 3.3-27.253 3.715l-23.018 1.037c-9.516.417-18.613.537-26.988 5.74-3.78 2.349-6.915 5.647-9.347 9.352-4.571 6.964-7.105 16.016-5.92 24.342 2.34 16.412 17.323 28.603 33.523 29.035 9.61.257 19.588-4.372 25.853-11.573 6.01-6.908 10.018-16.374 13.963-24.561 1.983-4.117 4.466-8.153 6.611-12.216 4.225-8.002 9.709-16.117 12.84-24.606z" style="fill:#133a30;fill-opacity:0.4;stroke:none;stroke-width:.264583"/></g></svg>